<?xml version="1.0" encoding="UTF-8"?>
<svg xmlns:xodm="http://www.corel.com/coreldraw/odm/2003" xmlns="http://www.w3.org/2000/svg" xmlns:xlink="http://www.w3.org/1999/xlink" version="1.1" id="Layer_1" x="0px" y="0px" viewBox="0 0 2500 472" style="enable-background:new 0 0 2500 472;" xml:space="preserve">
<style type="text/css">
	.st0{fill-rule:evenodd;clip-rule:evenodd;}
</style>
<g id="Layer_x0020_1">
	<g id="_1356123313152">
		<path d="M655.9,146.8h27.5l76.9,178.4h-36.3l-16.6-40.8H630l-16.1,40.8h-35.5L655.9,146.8L655.9,146.8z M696.2,257.2l-27.5-72.6    l-28,72.6H696.2L696.2,257.2z M864.4,325.2h27.5l72.1-178.4h-34.3l-50.1,134.8l-48.7-134.8h-36.5L864.4,325.2L864.4,325.2z     M1077.4,146.8h27.5l76.8,178.4h-36.3l-16.6-40.8h-77.4l-16.1,40.8h-35.5L1077.4,146.8z M1117.7,257.2l-27.5-72.6l-28,72.6H1117.7    L1117.7,257.2L1117.7,257.2z M1252,325.2h107.6v-28.7h-75.8V146.8H1252L1252,325.2L1252,325.2z M1490.8,146.8h27.5l76.8,178.4    h-36.3l-16.6-40.8h-77.4l-16.1,40.8h-35.5L1490.8,146.8L1490.8,146.8z M1531.1,257.2l-27.5-72.6l-28,72.6H1531.1L1531.1,257.2z     M1665.3,325.2h31.8V188.4h0.5l88.2,136.8h40.3V146.8h-31.8v132.6h-0.5l-86.4-132.6h-42.1L1665.3,325.2L1665.3,325.2L1665.3,325.2    z M2063.5,170.5c-8.9-10.3-18.6-17.5-29-21.7c-10.3-4.4-21.4-6.5-33.5-6.5c-13.8,0-26.5,2.3-38,6.8c-11.4,4.4-21.3,10.7-29.7,18.9    c-8.2,8.2-14.7,18.2-19.4,30c-4.7,11.6-7,24.5-7,38.8c0,14.3,2.4,26.6,7,38c4.7,11.4,11.2,21.2,19.4,29.5    c8.4,8.1,18.3,14.4,29.7,18.9c11.6,4.4,24.3,6.5,38,6.5c13.8,0,25.5-2.5,37-7.6c11.6-5,21.4-13.1,29.5-24.2l-26.2-18.7    c-5.9,7.6-12.3,13.1-19.2,16.6c-6.7,3.4-13.7,5-20.9,5c-9.3,0-17.7-1.7-25.2-5c-7.4-3.4-13.8-8-19.2-13.8    c-5.4-5.9-9.6-12.8-12.6-20.9c-2.9-8.1-4.3-16.9-4.3-26.5c0-8.9,1.4-17.2,4.3-25c3-7.7,7.2-14.4,12.6-20.2    c5.4-5.9,11.8-10.4,19.2-13.6c7.6-3.4,16-5,25.2-5c6.2,0,12.3,1.2,18.4,3.5c6.2,2.4,12.6,7,19.1,14.1L2063.5,170.5L2063.5,170.5    L2063.5,170.5z M2139.2,325.2h31.8v-78.6h83.4v78.6h31.8V146.8h-31.8v71.1H2171v-71.1h-31.8V325.2L2139.2,325.2z M2376.4,325.2    h122.7v-28.7h-91v-48.4h81.9v-28.7h-81.9v-43.8h86.5v-28.7h-118.2V325.2L2376.4,325.2z"></path>
		<path class="st0" d="M236.8,0C106.5,0,0.9,105.7,0.9,236c0,130.3,105.7,236,236,236c130.3,0,236-105.7,236-236    C472.9,105.7,367.2,0,236.8,0L236.8,0z M216.8,302.8l-0.2,0.3c-5.2,9.2-7.9,13.8-11.6,17.3c-4,3.8-8.8,6.6-14.1,8.2    c-4.8,1.3-10.2,1.3-21,1.3h-45.8c-9.6,0-14.4,0-17.3-1.9c-3.1-2-5.1-5.4-5.3-9.1c-0.2-3.4,2.2-7.6,7-15.9l113.1-199.3    c4.8-8.5,7.3-12.7,10.3-14.3c3.3-1.7,7.3-1.7,10.6,0c3.1,1.6,5.5,5.8,10.3,14.3l23.2,40.6l0.1,0.2c5.2,9.1,7.8,13.7,9,18.5    c1.3,5.3,1.3,10.8,0,16.1c-1.1,4.9-3.8,9.5-9.1,18.7L216.8,302.8L216.8,302.8L216.8,302.8z M368.7,328c-2.9,1.9-7.8,1.9-17.5,1.9    h-65.6c-9.7,0-14.5,0-17.4-1.9c-3.1-2-5.1-5.5-5.3-9.2c-0.2-3.4,2.2-7.5,7-15.8l0.1-0.2l32.8-56.2c4.8-8.3,7.2-12.4,10.3-14    c3.3-1.7,7.2-1.7,10.5,0c3,1.5,5.3,5.5,10,13.3l0.4,0.6l32.9,56.2c0.1,0.3,0.3,0.5,0.5,0.8c4.6,7.9,6.9,11.9,6.7,15.2    C373.8,322.5,371.8,325.9,368.7,328L368.7,328L368.7,328z"></path>
	</g>
</g>
</svg>
