<?xml version="1.0" encoding="UTF-8"?>
<svg xmlns:xodm="http://www.corel.com/coreldraw/odm/2003" xmlns="http://www.w3.org/2000/svg" xmlns:xlink="http://www.w3.org/1999/xlink" version="1.1" id="Layer_1" x="0px" y="0px" viewBox="0 0 2500 333" style="enable-background:new 0 0 2500 333;" xml:space="preserve">
<style type="text/css">
	.st0{fill:#FF0420;}
</style>
<g id="Layer_x0020_1">
	<g id="_1995837174000">
		<path class="st0" d="M126.1,333c-36.6,0-66.9-8.8-90.8-26.5C11.4,288.9,0,263.6,0,232.1c0-6.3,1.3-15.1,2.5-25.2    c3.8-22.7,10.1-49.2,17.7-80.7C41.6,41.6,95.9-1.3,184.2-1.3c24,0,45.4,3.8,64.3,12.6c18.9,7.6,34.1,18.9,45.4,35.3    c11.4,15.1,16.4,34.1,16.4,55.5c0,6.3-1.3,15.1-2.5,24c-5,27.7-10.1,54.2-16.4,80.7c-11.4,42.9-30.3,74.4-56.8,94.6    S171.5,333,127.4,333H126.1z M132.4,266.1c17.7,0,32.8-5,44.1-15.1c12.6-10.1,21.4-25.2,26.5-46.7c7.6-29,12.6-54.2,16.4-75.7    c1.3-6.3,1.3-12.6,1.3-20.2c0-27.7-15.1-41.6-44.1-41.6c-17.7,0-32.8,5-45.4,15.1c-12.6,10.1-21.4,25.2-26.5,46.7    c-5,20.2-11.4,45.4-16.4,75.7C87,210.6,87,217,87,223.3C87,252.3,102.2,266.1,132.4,266.1z"></path>
		<path class="st0" d="M357,329.2c-3.8,0-6.3-1.3-7.6-3.8c-1.3-2.5-2.5-5-1.3-8.8l64.3-301.5c1.3-3.8,2.5-6.3,5-8.8s6.3-3.8,8.8-3.8    h124.9c34.1,0,61.8,7.6,83.2,21.4S666,59.3,666,85.8c0,7.6-1.3,15.1-2.5,24c-7.6,35.3-24,61.8-46.7,78.2    c-24,16.4-55.5,25.2-95.9,25.2h-63.1l-21.4,100.9c0,3.8-2.5,6.3-5,8.8c-2.5,2.5-6.3,3.8-8.8,3.8h-63.1L357,329.2z M522.2,152.6    c12.6,0,24-3.8,34.1-10.1c10.1-7.6,16.4-17.7,20.2-30.3c1.3-5,1.3-10.1,1.3-13.9c0-8.8-2.5-15.1-7.6-20.2s-13.9-7.6-27.7-7.6    h-55.5l-17.7,83.2h54.2L522.2,152.6z"></path>
		<path class="st0" d="M770.7,329.2c-3.8,0-6.3-1.3-7.6-3.8c-1.3-2.5-2.5-5-1.3-8.8l51.7-239.7h-83.2c-3.8,0-6.3-1.3-7.6-3.8    s-2.5-5-1.3-8.8l11.4-49.2c1.3-3.8,2.5-6.3,5-8.8s6.3-3.8,8.8-3.8h251c3.8,0,6.3,1.3,7.6,3.8c1.3,1.3,1.3,3.8,1.3,5s0,1.3,0,2.5    l-11.4,49.2c0,3.8-2.5,6.3-5,8.8s-5,3.8-8.8,3.8h-83.2l-51.7,239.7c-1.3,3.8-2.5,6.3-5,8.8c-2.5,2.5-6.3,3.8-8.8,3.8h-61.8V329.2z    "></path>
		<path class="st0" d="M1017.9,329.2c-3.8,0-6.3-1.3-7.6-3.8c-1.3-2.5-2.5-5-1.3-8.8l65.6-301.5c0-3.8,2.5-6.3,5-8.8    s6.3-3.8,8.8-3.8h63.1c3.8,0,6.3,1.3,7.6,3.8c1.3,1.3,1.3,3.8,1.3,5s0,1.3,0,2.5l-64.3,301.5c0,3.8-2.5,6.3-5,8.8    c-2.5,2.5-6.3,3.8-8.8,3.8h-63.1L1017.9,329.2z"></path>
		<path class="st0" d="M1197,329.2c-3.8,0-6.3-1.3-7.6-3.8c-1.3-2.5-2.5-5-1.3-8.8l64.3-301.5c0-3.8,2.5-6.3,5-8.8s6.3-3.8,8.8-3.8    h50.5c7.6,0,12.6,3.8,13.9,10.1l50.5,146.3l113.5-146.3c1.3-2.5,3.8-5,6.3-7.6s6.3-3.8,11.4-3.8h50.5c3.8,0,6.3,1.3,7.6,3.8    c1.3,1.3,1.3,3.8,1.3,5s0,1.3,0,2.5l-64.3,301.5c0,3.8-2.5,6.3-5,8.8c-2.5,2.5-6.3,3.8-8.8,3.8h-56.8c-3.8,0-6.3-1.3-7.6-3.8    c-1.3-2.5-2.5-5-1.3-8.8l36.6-170.3l-71.9,94.6c-2.5,3.8-6.3,6.3-8.8,7.6s-6.3,2.5-10.1,2.5h-24c-6.3,0-11.4-3.8-13.9-10.1    L1303,140l-37.8,175.3c-1.3,3.8-2.5,6.3-5,8.8c-2.5,2.5-6.3,3.8-8.8,3.8h-55.5L1197,329.2z"></path>
		<path class="st0" d="M1609.5,329.2c-3.8,0-6.3-1.3-7.6-3.8c-1.3-2.5-2.5-5-1.3-8.8l65.6-301.5c1.3-3.8,2.5-6.3,5-8.8    s6.3-3.8,8.8-3.8h63.1c3.8,0,6.3,1.3,7.6,3.8c1.3,1.3,1.3,3.8,1.3,5s0,1.3,0,2.5l-64.3,301.5c0,3.8-2.5,6.3-5,8.8    c-2.5,2.5-6.3,3.8-8.8,3.8h-63.1L1609.5,329.2z"></path>
		<path class="st0" d="M1902.1,333c-27.7,0-50.5-3.8-70.6-11.4c-18.9-7.6-34.1-17.7-44.1-29c-10.1-12.6-15.1-26.5-15.1-41.6    c0-2.5,0-6.3,1.3-11.4c1.3-2.5,2.5-5,3.8-7.6c2.5-1.3,5-2.5,7.6-2.5h59.3c3.8,0,6.3,0,8.8,1.3s3.8,3.8,6.3,6.3    c2.5,7.6,7.6,15.1,15.1,20.2s18.9,7.6,32.8,7.6c17.7,0,31.5-2.5,42.9-8.8c11.4-5,17.7-12.6,20.2-22.7c0-1.3,0-2.5,0-5    c0-7.6-5-13.9-13.9-17.7c-10.1-5-27.7-10.1-53-16.4c-30.3-6.3-53-16.4-68.1-29c-15.1-13.9-24-30.3-24-51.7    c0-7.6,1.3-15.1,2.5-22.7c6.3-29,21.4-51.7,46.7-68.1s56.8-24,95.9-24c24,0,44.1,3.8,63.1,12.6s32.8,18.9,42.9,31.5    s15.1,25.2,15.1,37.8c0,3.8,0,6.3,0,7.6c0,2.5-2.5,5-3.8,7.6c-1.3,1.3-3.8,2.5-7.6,2.5H2003c-6.3,0-11.4-2.5-13.9-7.6    c0-7.6-3.8-12.6-11.4-17.7s-16.4-7.6-27.7-7.6c-13.9,0-25.2,2.5-34.1,7.6s-13.9,12.6-16.4,21.4c0,1.3,0,3.8,0,6.3    c0,7.6,3.8,13.9,12.6,18.9c8.8,5,25.2,8.8,46.7,13.9c35.3,6.3,60.5,16.4,75.7,29c16.4,12.6,24,29,24,50.5c0,7.6-1.3,15.1-2.5,22.7    c-6.3,31.5-24,55.5-50.5,71.9c-26.5,16.4-61.8,24-104.7,24L1902.1,333z"></path>
		<path class="st0" d="M2122.9,329.2c-3.8,0-6.3-1.3-7.6-3.8c-1.3-2.5-2.5-5-1.3-8.8l64.3-301.5c0-3.8,2.5-6.3,5-8.8    s6.3-3.8,8.8-3.8h50.5c7.6,0,12.6,3.8,13.9,10.1l50.5,146.3l113.5-146.3c1.3-2.5,3.8-5,6.3-7.6s6.3-3.8,11.4-3.8h50.5    c3.8,0,6.3,1.3,7.6,3.8c1.3,1.3,1.3,3.8,1.3,5s0,1.3,0,2.5l-64.3,301.5c-1.3,3.8-2.5,6.3-5,8.8c-2.5,2.5-6.3,3.8-8.8,3.8h-56.8    c-3.8,0-6.3-1.3-7.6-3.8c-1.3-2.5-2.5-5-1.3-8.8l36.6-170.3l-71.9,94.6c-2.5,3.8-6.3,6.3-8.8,7.6s-6.3,2.5-10.1,2.5h-24    c-6.3,0-11.4-3.8-13.9-10.1l-32.8-98.4L2191,315.3c-1.3,3.8-2.5,6.3-5,8.8c-2.5,2.5-6.3,3.8-8.8,3.8h-55.5L2122.9,329.2z"></path>
	</g>
</g>
</svg>
